<?xml version="1.0" encoding="UTF-8"?>
<svg width="760" height="479" viewBox="0 0 760 479" fill="none" xmlns="http://www.w3.org/2000/svg">
  <defs>
    <linearGradient id="premiumBg" x1="0" y1="0" x2="760" y2="479" gradientUnits="userSpaceOnUse">
      <stop offset="0" stop-color="#0d1117"/>
      <stop offset="0.55" stop-color="#0f1723"/>
      <stop offset="1" stop-color="#111827"/>
    </linearGradient>

    <linearGradient id="softGlow" x1="80" y1="40" x2="640" y2="479" gradientUnits="userSpaceOnUse">
      <stop offset="0" stop-color="#238636" stop-opacity="0.16"/>
      <stop offset="0.45" stop-color="#1f6feb" stop-opacity="0.10"/>
      <stop offset="1" stop-color="#8957e5" stop-opacity="0.13"/>
    </linearGradient>
  </defs>

  <rect x="16" y="16" width="728" height="447" rx="24" fill="url(#premiumBg)" stroke="#30363d"/>
  <rect x="16" y="16" width="728" height="447" rx="24" fill="url(#softGlow)"/>

  <rect x="36" y="36" width="688" height="58" rx="17" fill="#0d1117" fill-opacity="0.72" stroke="#21262d"/>

  <text x="58" y="62" fill="#f0f6fc" font-family="Segoe UI, Arial, sans-serif" font-size="20" font-weight="800">Repository language mix</text>
  <text x="58" y="80" fill="#8b949e" font-family="Segoe UI, Arial, sans-serif" font-size="12" font-weight="500">GitHub Linguist stats from public owner repositories</text>

  <rect x="560" y="49" width="70" height="26" rx="13" fill="#13233a" stroke="#27496d"/>
  <circle cx="576" cy="62" r="4" fill="#3fb950"/>
  <text x="588" y="66" fill="#c9d1d9" font-family="Segoe UI, Arial, sans-serif" font-size="12" font-weight="700">auto</text>

  <rect x="638" y="49" width="72" height="26" rx="13" fill="#161b22" stroke="#30363d"/>
  <text x="674" y="66" fill="#c9d1d9" font-family="Segoe UI, Arial, sans-serif" font-size="12" font-weight="700" text-anchor="middle">27 repos</text>

  <circle cx="205" cy="260" r="94" fill="none" stroke="#21262d" stroke-width="32"/>

  <path d="M 111.00 260.00 A 94 94 0 0 1 298.46 249.96 L 266.65 253.38 A 62 62 0 0 0 143.00 260.00 Z" fill="#3572A5" fill-rule="evenodd"/>
<path d="M 298.46 249.96 A 94 94 0 0 1 273.51 324.36 L 250.19 302.45 A 62 62 0 0 0 266.65 253.38 Z" fill="#178600" fill-rule="evenodd"/>
<path d="M 273.51 324.36 A 94 94 0 0 1 210.55 353.84 L 208.66 321.89 A 62 62 0 0 0 250.19 302.45 Z" fill="#3178c6" fill-rule="evenodd"/>
<path d="M 210.55 353.84 A 94 94 0 0 1 149.49 335.86 L 168.39 310.04 A 62 62 0 0 0 208.66 321.89 Z" fill="#f1e05a" fill-rule="evenodd"/>
<path d="M 149.49 335.86 A 94 94 0 0 1 115.30 288.11 L 145.84 278.54 A 62 62 0 0 0 168.39 310.04 Z" fill="#dea584" fill-rule="evenodd"/>
<path d="M 115.30 288.11 A 94 94 0 0 1 112.05 274.04 L 143.70 269.26 A 62 62 0 0 0 145.84 278.54 Z" fill="#00ADD8" fill-rule="evenodd"/>
<path d="M 112.05 274.04 A 94 94 0 0 1 111.40 268.71 L 143.27 265.74 A 62 62 0 0 0 143.70 269.26 Z" fill="#563d7c" fill-rule="evenodd"/>
<path d="M 111.40 268.71 A 94 94 0 0 1 111.07 263.53 L 143.04 262.33 A 62 62 0 0 0 143.27 265.74 Z" fill="#e34c26" fill-rule="evenodd"/>
<path d="M 111.07 263.53 A 94 94 0 0 1 111.00 260.00 L 143.00 260.00 A 62 62 0 0 0 143.04 262.33 Z" fill="#8b949e" fill-rule="evenodd"/>

  <circle cx="205" cy="260" r="57" fill="#0d1117" stroke="#21262d"/>

  <text x="205" y="250" fill="#f0f6fc" font-family="Segoe UI, Arial, sans-serif" font-size="28" font-weight="900" text-anchor="middle">14</text>
  <text x="205" y="273" fill="#8b949e" font-family="Segoe UI, Arial, sans-serif" font-size="12" font-weight="700" text-anchor="middle">languages</text>

  <text x="410" y="118" fill="#8b949e" font-family="Segoe UI, Arial, sans-serif" font-size="12" font-weight="700">LANGUAGE</text>
  <text x="704" y="118" fill="#8b949e" font-family="Segoe UI, Arial, sans-serif" font-size="12" font-weight="700" text-anchor="end">SHARE</text>

  
<g>
  <circle cx="413" cy="133" r="5.5" fill="#3572A5"/>
  <text x="428" y="137" fill="#e6edf3" font-family="Segoe UI, Arial, sans-serif" font-size="13" font-weight="700">Python</text>
  <text x="704" y="137" fill="#f0f6fc" font-family="Segoe UI, Arial, sans-serif" font-size="13" font-weight="700" text-anchor="end">48.3%</text>

  <rect x="428" y="146" width="170" height="5" rx="2.5" fill="#21262d"/>
  <rect x="428" y="146" width="82" height="5" rx="2.5" fill="#3572A5"/>
</g>

<g>
  <circle cx="413" cy="165" r="5.5" fill="#178600"/>
  <text x="428" y="169" fill="#e6edf3" font-family="Segoe UI, Arial, sans-serif" font-size="13" font-weight="700">C#</text>
  <text x="704" y="169" fill="#f0f6fc" font-family="Segoe UI, Arial, sans-serif" font-size="13" font-weight="700" text-anchor="end">13.7%</text>

  <rect x="428" y="178" width="170" height="5" rx="2.5" fill="#21262d"/>
  <rect x="428" y="178" width="23" height="5" rx="2.5" fill="#178600"/>
</g>

<g>
  <circle cx="413" cy="197" r="5.5" fill="#3178c6"/>
  <text x="428" y="201" fill="#e6edf3" font-family="Segoe UI, Arial, sans-serif" font-size="13" font-weight="700">TypeScript</text>
  <text x="704" y="201" fill="#f0f6fc" font-family="Segoe UI, Arial, sans-serif" font-size="13" font-weight="700" text-anchor="end">12.1%</text>

  <rect x="428" y="210" width="170" height="5" rx="2.5" fill="#21262d"/>
  <rect x="428" y="210" width="20" height="5" rx="2.5" fill="#3178c6"/>
</g>

<g>
  <circle cx="413" cy="229" r="5.5" fill="#f1e05a"/>
  <text x="428" y="233" fill="#e6edf3" font-family="Segoe UI, Arial, sans-serif" font-size="13" font-weight="700">JavaScript</text>
  <text x="704" y="233" fill="#f0f6fc" font-family="Segoe UI, Arial, sans-serif" font-size="13" font-weight="700" text-anchor="end">11.0%</text>

  <rect x="428" y="242" width="170" height="5" rx="2.5" fill="#21262d"/>
  <rect x="428" y="242" width="19" height="5" rx="2.5" fill="#f1e05a"/>
</g>

<g>
  <circle cx="413" cy="261" r="5.5" fill="#dea584"/>
  <text x="428" y="265" fill="#e6edf3" font-family="Segoe UI, Arial, sans-serif" font-size="13" font-weight="700">Rust</text>
  <text x="704" y="265" fill="#f0f6fc" font-family="Segoe UI, Arial, sans-serif" font-size="13" font-weight="700" text-anchor="end">10.1%</text>

  <rect x="428" y="274" width="170" height="5" rx="2.5" fill="#21262d"/>
  <rect x="428" y="274" width="17" height="5" rx="2.5" fill="#dea584"/>
</g>

<g>
  <circle cx="413" cy="293" r="5.5" fill="#00ADD8"/>
  <text x="428" y="297" fill="#e6edf3" font-family="Segoe UI, Arial, sans-serif" font-size="13" font-weight="700">Go</text>
  <text x="704" y="297" fill="#f0f6fc" font-family="Segoe UI, Arial, sans-serif" font-size="13" font-weight="700" text-anchor="end">2.4%</text>

  <rect x="428" y="306" width="170" height="5" rx="2.5" fill="#21262d"/>
  <rect x="428" y="306" width="4" height="5" rx="2.5" fill="#00ADD8"/>
</g>

<g>
  <circle cx="413" cy="325" r="5.5" fill="#563d7c"/>
  <text x="428" y="329" fill="#e6edf3" font-family="Segoe UI, Arial, sans-serif" font-size="13" font-weight="700">CSS</text>
  <text x="704" y="329" fill="#f0f6fc" font-family="Segoe UI, Arial, sans-serif" font-size="13" font-weight="700" text-anchor="end">0.9%</text>

  <rect x="428" y="338" width="170" height="5" rx="2.5" fill="#21262d"/>
  <rect x="428" y="338" width="4" height="5" rx="2.5" fill="#563d7c"/>
</g>

<g>
  <circle cx="413" cy="357" r="5.5" fill="#e34c26"/>
  <text x="428" y="361" fill="#e6edf3" font-family="Segoe UI, Arial, sans-serif" font-size="13" font-weight="700">HTML</text>
  <text x="704" y="361" fill="#f0f6fc" font-family="Segoe UI, Arial, sans-serif" font-size="13" font-weight="700" text-anchor="end">0.9%</text>

  <rect x="428" y="370" width="170" height="5" rx="2.5" fill="#21262d"/>
  <rect x="428" y="370" width="4" height="5" rx="2.5" fill="#e34c26"/>
</g>

<g>
  <circle cx="413" cy="389" r="5.5" fill="#8b949e"/>
  <text x="428" y="393" fill="#e6edf3" font-family="Segoe UI, Arial, sans-serif" font-size="13" font-weight="700">Other</text>
  <text x="704" y="393" fill="#f0f6fc" font-family="Segoe UI, Arial, sans-serif" font-size="13" font-weight="700" text-anchor="end">0.6%</text>

  <rect x="428" y="402" width="170" height="5" rx="2.5" fill="#21262d"/>
  <rect x="428" y="402" width="4" height="5" rx="2.5" fill="#8b949e"/>
</g>

  <line x1="382" y1="102" x2="382" y2="423" stroke="#21262d"/>

  <text x="205" y="378" fill="#8b949e" font-family="Segoe UI, Arial, sans-serif" font-size="12" font-weight="600" text-anchor="middle">top language · Python · 48.3%</text>
  <text x="205" y="396" fill="#8b949e" font-family="Segoe UI, Arial, sans-serif" font-size="12" font-weight="600" text-anchor="middle">calculated from total code volume</text>
</svg>